<svg width="22" height="20" viewBox="0 0 1000 915" xmlns="http://www.w3.org/2000/svg" xmlns:svg="http://www.w3.org/2000/svg">
 <g>
  <g id="svg_1">
   <rect id="svg_2" ry="119" rx="119" height="875" width="960" y="20" x="20" fill="#EDEDE8"/>
   <path id="svg_3" d="m139,0l722,0c38,0 73,16 98,41c25,25 41,60 41,98l0,637c0,38 -16,73 -41,98c-25,25 -60,41 -98,41l-722,0c-38,0 -73,-16 -98,-41c-25,-25 -41,-60 -41,-98l0,-637c0,-38 16,-73 41,-98c25,-25 60,-41 98,-41zm722,40l-722,0c-27,0 -52,11 -70,29c-18,18 -29,43 -29,70l0,637c0,27 11,52 29,70c18,18 43,29 70,29l722,0c27,0 52,-11 70,-29c18,-18 29,-43 29,-70l0,-637c0,-27 -11,-52 -29,-70c-18,-18 -43,-29 -70,-29z" class="fil1" fill="#9F9F93"/>
   <polygon id="svg_4" points="214,615 433,273 903,447 816,792 793,786 875,462 442,301 234,627 " class="fil2" fill="#ABABA7"/>
   <circle id="svg_5" r="49" cy="287" cx="438" fill="#000000"/>
   <circle id="svg_6" r="49" cy="621" cx="224" fill="#000000"/>
   <circle id="svg_7" r="49" cy="454" cx="889" fill="#000000"/>
   <circle id="svg_8" r="49" cy="789" cx="804" fill="#000000"/>
   <polygon id="svg_14" points="121,469 340,127 810,301 723,646 700,640 782,316 349,155 141,481 " class="fil2" fill="#ABABA7"/>
   <circle id="svg_15" r="49" cy="141" cx="345" fill="#000000"/>
   <circle id="svg_16" r="49" cy="475" cx="131" fill="#000000"/>
   <circle id="svg_17" r="49" cy="308" cx="796" fill="#000000"/>
   <circle id="svg_18" r="49" cy="643" cx="711" fill="#000000"/>
  </g>
 </g>
</svg>
