<svg width="22" height="20" viewBox="0 0 1000 915" xmlns="http://www.w3.org/2000/svg" xmlns:svg="http://www.w3.org/2000/svg">
 <g>
  <g id="svg_1">
   <rect id="svg_2" ry="119" rx="119" height="875" width="960" y="20" x="20" fill="#EDEDE8"/>
   <path id="svg_3" d="m139,0l722,0c38,0 73,16 98,41c25,25 41,60 41,98l0,637c0,38 -16,73 -41,98c-25,25 -60,41 -98,41l-722,0c-38,0 -73,-16 -98,-41c-25,-25 -41,-60 -41,-98l0,-637c0,-38 16,-73 41,-98c25,-25 60,-41 98,-41zm722,40l-722,0c-27,0 -52,11 -70,29c-18,18 -29,43 -29,70l0,637c0,27 11,52 29,70c18,18 43,29 70,29l722,0c27,0 52,-11 70,-29c18,-18 29,-43 29,-70l0,-637c0,-27 -11,-52 -29,-70c-18,-18 -43,-29 -70,-29z" fill="#9F9F93"/>
   <polygon id="svg_4" points="223,601 803,769 888,434 437,267 " fill="#F1DFAC"/>
   <path id="svg_5" d="m242,594l553,160l79,-312l-433,-161l-199,313zm558,186l-595,-172l227,-355l470,174l-90,356l-12,-3z" fill="#ABABA7"/>
   <circle id="svg_6" r="49" cy="267" cx="437" fill="#000000"/>
   <circle id="svg_7" r="49" cy="601" cx="223" fill="#000000"/>
   <circle id="svg_8" r="49" cy="434" cx="888" fill="#000000"/>
   <circle id="svg_9" r="49" cy="769" cx="803" fill="#000000"/>
   <polygon id="svg_10" points="105,450 685,618 770,283 319,116 " fill="#F1DFAC"/>
   <path id="svg_11" d="m124,443l553,160l79,-312l-433,-161l-199,313zm558,186l-595,-172l227,-355l470,174l-90,356l-12,-3z" fill="#ABABA7"/>
   <circle id="svg_12" r="49" cy="116" cx="319" fill="#000000"/>
   <circle id="svg_13" r="49" cy="450" cx="105" fill="#000000"/>
   <circle id="svg_14" r="49" cy="283" cx="770" fill="#000000"/>
   <circle id="svg_15" r="49" cy="618" cx="685" fill="#000000"/>
  </g>
 </g>
</svg>
